# xmcd CD database file
#
# Track frame offsets:
#	150
#	15224
#	33803
#	48103
#	62321
#	74050
#	85339
#	99045
#	115420
#	127150
#	145460
#	158792
#	178628
#	192625
#	205332
#
# Disc length: 2920 seconds
#
# Revision: 0
# Processed by: cddbd v1.4PL0 Copyright (c) Steve Scherf et al.
# Submitted via: CDex 1.50beta9
#
DISCID=cc0b660f
DTITLE=Ella Fizgeralt - Archivo de Imagenes
DYEAR=1900
DGENRE=Jazz
TTITLE0=Undecided
TTITLE1=Oh.Jonny
TTITLE2=I Want The Waiter With The Water
TTITLE3=Blue Lou
TTITLE4=Diga Diga Do
TTITLE5=A- Tisket , A -Tasket
TTITLE6=You,ll Have To Swing It
TTITLE7=Limehose Blues
TTITLE8=Traffic Jam
TTITLE9=I'm Comffesin
TTITLE10=T'Ain't What You Do
TTITLE11=Breaki'Down
TTITLE12=Rhythm And Romance
TTITLE13=Ella
TTITLE14=Chew-Chew-Chew
EXTD=
EXTT0=
EXTT1=
EXTT2=
EXTT3=
EXTT4=
EXTT5=
EXTT6=
EXTT7=
EXTT8=
EXTT9=
EXTT10=
EXTT11=
EXTT12=
EXTT13=
EXTT14=
PLAYORDER=
